<?xml version="1.0" encoding="iso-8859-1"?>
<!-- Generator: Adobe Illustrator 16.0.3, SVG Export Plug-In . SVG Version: 6.00 Build 0)  -->
<!DOCTYPE svg PUBLIC "-//W3C//DTD SVG 1.1//EN" "http://www.w3.org/Graphics/SVG/1.1/DTD/svg11.dtd">
<svg version="1.1" id="Layer_1" xmlns="http://www.w3.org/2000/svg" xmlns:xlink="http://www.w3.org/1999/xlink" x="0px" y="0px"
	 width="128px" height="128px" viewBox="0 0 128 128" enable-background="new 0 0 128 128" xml:space="preserve">
<path d="M71.79,114.008H56.229c-1.104,0-2-0.896-2-2V98.431c-2.402-0.681-4.723-1.61-6.928-2.778l-9.206,9.209
	c-0.75,0.75-2.078,0.751-2.828,0L24.264,93.857c-0.781-0.78-0.781-2.047,0-2.828l8.89-8.891c-1.549-2.629-2.748-5.432-3.577-8.365
	H15.998c-1.104,0-2-0.896-2-2V56.217c0-1.104,0.896-2,2-2h13.579c0.831-2.936,2.029-5.737,3.576-8.363l-8.89-8.892
	c-0.781-0.781-0.781-2.047,0-2.828l11.003-11.001c0.375-0.375,0.884-0.586,1.414-0.586l0,0c0.53,0,1.039,0.211,1.414,0.586
	l9.207,9.208c2.204-1.166,4.523-2.096,6.927-2.777V15.985c0-1.104,0.896-2,2-2H71.79c1.104,0,2,0.896,2,2v13.578
	c2.929,0.828,5.73,2.026,8.362,3.578l10.01-10.009c0.375-0.375,0.884-0.586,1.414-0.586l0,0c0.53,0,1.039,0.211,1.414,0.586
	l11,11.003c0.781,0.781,0.781,2.047,0,2.829L95.664,47.286c1.169,2.213,2.1,4.534,2.78,6.931h13.575c1.104,0,2,0.896,2,2v15.557
	c0,1.104-0.896,2-2,2H98.445c-0.681,2.403-1.612,4.725-2.78,6.932l10.325,10.326c0.781,0.781,0.781,2.048,0,2.828l-11,11.002
	c-0.781,0.781-2.047,0.781-2.828,0L82.151,94.853c-2.631,1.55-5.433,2.748-8.361,3.577v13.578
	C73.79,113.111,72.895,114.008,71.79,114.008z M58.229,110.008H69.79V96.883c0-0.928,0.638-1.733,1.541-1.946
	c3.566-0.841,6.938-2.285,10.022-4.294c0.794-0.517,1.837-0.407,2.506,0.262l9.717,9.715l8.172-8.174l-9.979-9.979
	c-0.644-0.644-0.771-1.641-0.312-2.426c1.596-2.72,2.771-5.655,3.495-8.726c0.213-0.902,1.019-1.541,1.946-1.541h13.121V58.217
	H96.898c-0.928,0-1.733-0.638-1.946-1.54c-0.723-3.059-1.899-5.996-3.496-8.729c-0.459-0.785-0.33-1.781,0.313-2.424l9.979-9.976
	l-8.172-8.174l-9.717,9.716c-0.668,0.668-1.713,0.778-2.507,0.261c-3.084-2.012-6.455-3.456-10.02-4.292
	c-0.904-0.212-1.543-1.019-1.543-1.947V17.985H58.229v13.126c0,0.928-0.638,1.734-1.541,1.947c-3.072,0.724-6.006,1.898-8.721,3.49
	c-0.786,0.461-1.783,0.333-2.426-0.311l-8.86-8.861l-8.175,8.173l8.597,8.599c0.669,0.669,0.777,1.715,0.261,2.507
	c-2.005,3.073-3.449,6.445-4.293,10.022c-0.213,0.903-1.019,1.541-1.946,1.541H17.998v11.557h13.126
	c0.928,0,1.734,0.639,1.947,1.542c0.84,3.572,2.284,6.944,4.292,10.024c0.517,0.793,0.408,1.838-0.261,2.507l-8.597,8.597
	l8.175,8.176l8.86-8.864c0.643-0.643,1.642-0.771,2.427-0.311c2.716,1.595,5.649,2.771,8.719,3.492
	c0.903,0.212,1.542,1.019,1.542,1.946V110.008z"/>
<path d="M64.009,78.736c-8.129,0-14.742-6.613-14.742-14.741s6.613-14.74,14.742-14.74c8.127,0,14.739,6.612,14.739,14.74
	S72.136,78.736,64.009,78.736z M64.009,53.256c-5.923,0-10.742,4.818-10.742,10.74c0,5.922,4.819,10.741,10.742,10.741
	c5.922,0,10.739-4.818,10.739-10.741C74.748,58.074,69.931,53.256,64.009,53.256z"/>
</svg>
