<?xml version="1.0" encoding="iso-8859-1"?>
<!-- Generator: Adobe Illustrator 16.0.3, SVG Export Plug-In . SVG Version: 6.00 Build 0)  -->
<!DOCTYPE svg PUBLIC "-//W3C//DTD SVG 1.1//EN" "http://www.w3.org/Graphics/SVG/1.1/DTD/svg11.dtd">
<svg version="1.1" id="Layer_1" xmlns="http://www.w3.org/2000/svg" xmlns:xlink="http://www.w3.org/1999/xlink" x="0px" y="0px"
	 width="128px" height="128px" viewBox="0 0 128 128" enable-background="new 0 0 128 128" xml:space="preserve">
<g>
	<path d="M52.579,113.982c-0.296,0-0.591-0.065-0.862-0.195c-0.479-0.229-0.847-0.639-1.023-1.139l-2.876-8.143
		c-1.676,0.107-3.349,0.035-4.998-0.209l-3.567,7.463c-0.229,0.479-0.639,0.847-1.139,1.023c-0.5,0.176-1.051,0.148-1.528-0.082
		l-9.098-4.349c-0.997-0.476-1.419-1.671-0.942-2.667l3.567-7.463c-0.966-0.89-1.855-1.858-2.661-2.896l-7.474,2.639
		c-0.5,0.177-1.051,0.148-1.528-0.081c-0.479-0.229-0.847-0.638-1.023-1.138l-3.357-9.51c-0.368-1.041,0.178-2.184,1.22-2.551
		l7.176-2.535c-0.106-1.671-0.036-3.342,0.21-4.997l-7.464-3.568c-0.997-0.476-1.418-1.671-0.941-2.667l4.348-9.097
		c0.229-0.479,0.639-0.847,1.139-1.023s1.051-0.148,1.528,0.082l7.465,3.568c1.135-1.232,2.392-2.336,3.757-3.301l-2.533-7.177
		c-0.368-1.042,0.179-2.184,1.22-2.551l9.507-3.357c1.046-0.37,2.185,0.179,2.552,1.22l2.64,7.473
		c1.309-0.021,2.624,0.061,3.925,0.254l3.568-7.465c0.229-0.479,0.639-0.847,1.139-1.023c0.5-0.176,1.051-0.148,1.528,0.082
		l9.098,4.349c0.997,0.476,1.419,1.67,0.942,2.667l-3.568,7.464c1.23,1.132,2.335,2.389,3.302,3.758l8.143-2.875
		c1.045-0.37,2.184,0.178,2.552,1.219l3.356,9.508c0.177,0.5,0.147,1.05-0.081,1.528c-0.229,0.479-0.639,0.847-1.14,1.023
		l-8.438,2.978c0.024,1.314-0.061,2.629-0.253,3.93l7.463,3.567c0.479,0.229,0.847,0.638,1.023,1.138s0.147,1.051-0.081,1.529
		l-4.349,9.097c-0.478,0.997-1.673,1.418-2.667,0.941l-7.463-3.567c-0.892,0.968-1.86,1.857-2.899,2.664l2.981,8.438
		c0.368,1.042-0.178,2.184-1.22,2.552l-9.506,3.358C53.029,113.944,52.804,113.982,52.579,113.982z M49.183,100.363
		c0.838,0,1.6,0.527,1.885,1.334l2.731,7.732l5.734-2.025l-2.813-7.961c-0.304-0.858,0.012-1.814,0.767-2.323
		c1.633-1.103,3.088-2.442,4.326-3.981c0.582-0.723,1.584-0.951,2.421-0.551l7.038,3.363l2.623-5.487L66.858,87.1
		c-0.837-0.4-1.289-1.322-1.092-2.229c0.419-1.93,0.548-3.904,0.382-5.872c-0.076-0.907,0.47-1.751,1.328-2.054l7.96-2.809
		l-2.024-5.734l-7.733,2.729c-0.89,0.315-1.882-0.037-2.374-0.847c-1.198-1.967-2.712-3.691-4.499-5.126
		c-0.724-0.582-0.953-1.584-0.553-2.422l3.365-7.041l-5.489-2.624l-3.364,7.04c-0.401,0.838-1.333,1.288-2.229,1.092
		c-1.925-0.419-3.916-0.547-5.865-0.383c-0.896,0.081-1.751-0.468-2.055-1.327L40.145,52.5l-5.735,2.025l2.389,6.768
		c0.315,0.892-0.038,1.882-0.846,2.374c-1.961,1.193-3.688,2.707-5.131,4.5c-0.581,0.723-1.582,0.95-2.42,0.55l-7.039-3.364
		l-2.623,5.487l7.038,3.365c0.837,0.399,1.289,1.323,1.092,2.229c-0.488,2.243-0.583,4.537-0.28,6.819
		c0.125,0.938-0.425,1.833-1.316,2.148l-6.767,2.39l2.025,5.736l6.996-2.471c0.858-0.303,1.813,0.012,2.323,0.767
		c1.104,1.636,2.443,3.09,3.979,4.323c0.724,0.582,0.952,1.585,0.552,2.422l-3.364,7.038l5.488,2.624l3.364-7.037
		c0.4-0.839,1.323-1.291,2.23-1.092c2.227,0.484,4.552,0.579,6.819,0.279C49.008,100.369,49.096,100.363,49.183,100.363z"/>
	<path d="M46.313,90.91c-1.536,0-3.022-0.338-4.418-1.005c-5.104-2.439-7.271-8.575-4.832-13.677
		c1.694-3.545,5.328-5.834,9.26-5.834c1.537,0,3.023,0.338,4.419,1.005c5.103,2.439,7.269,8.574,4.829,13.676
		C53.877,88.62,50.243,90.91,46.313,90.91z M46.323,74.395c-2.399,0-4.617,1.396-5.65,3.559c-1.488,3.112-0.166,6.855,2.947,8.344
		c0.853,0.407,1.759,0.613,2.693,0.613c2.397,0,4.614-1.396,5.648-3.561c1.488-3.111,0.167-6.854-2.944-8.342
		C48.165,74.601,47.259,74.395,46.323,74.395z"/>
</g>
<g>
	<path d="M91.296,63.579c-0.354,0-0.704-0.094-1.015-0.276c-0.457-0.269-0.789-0.709-0.922-1.223l-1.468-5.674
		c-0.979-0.044-1.949-0.17-2.903-0.374l-2.845,4.832c-0.27,0.457-0.709,0.789-1.223,0.921c-0.514,0.133-1.058,0.057-1.516-0.212
		l-6.309-3.714c-0.457-0.27-0.789-0.709-0.922-1.223s-0.056-1.059,0.213-1.516l2.845-4.831c-0.471-0.54-0.908-1.107-1.312-1.701
		l-5.19,1.345c-0.516,0.133-1.059,0.057-1.517-0.212c-0.457-0.269-0.789-0.709-0.922-1.223l-1.835-7.089
		c-0.133-0.513-0.056-1.059,0.213-1.516c0.27-0.458,0.709-0.789,1.223-0.921l4.952-1.281c0.045-0.979,0.17-1.95,0.375-2.906
		l-4.83-2.845c-0.952-0.56-1.27-1.786-0.709-2.738l3.713-6.307c0.27-0.457,0.709-0.789,1.223-0.921
		c0.512-0.135,1.058-0.057,1.516,0.212l4.832,2.845c0.737-0.643,1.524-1.223,2.357-1.736l-1.282-4.953
		c-0.133-0.514-0.056-1.059,0.213-1.516c0.27-0.457,0.709-0.789,1.223-0.921l7.088-1.833c1.076-0.275,2.161,0.367,2.438,1.436
		l1.343,5.192c0.714,0.064,1.422,0.171,2.123,0.321l2.844-4.831c0.27-0.457,0.709-0.789,1.223-0.921
		c0.513-0.135,1.059-0.057,1.516,0.212l6.308,3.714c0.952,0.561,1.27,1.787,0.709,2.738l-2.844,4.83
		c0.642,0.736,1.222,1.523,1.736,2.357l5.673-1.468c1.074-0.279,2.16,0.367,2.438,1.435l1.834,7.087
		c0.133,0.514,0.056,1.059-0.213,1.516c-0.27,0.458-0.709,0.789-1.223,0.921l-5.913,1.53c-0.063,0.714-0.171,1.423-0.32,2.123
		l4.831,2.844c0.457,0.27,0.789,0.709,0.922,1.223s0.056,1.059-0.213,1.516l-3.714,6.307c-0.561,0.952-1.787,1.27-2.738,0.709
		l-4.83-2.843c-0.54,0.471-1.107,0.908-1.702,1.312l1.531,5.911c0.276,1.069-0.366,2.161-1.436,2.438l-7.087,1.835
		C91.632,63.558,91.464,63.579,91.296,63.579z M89.441,52.409c0.907,0,1.706,0.613,1.936,1.499l1.354,5.234l3.214-0.833
		l-1.399-5.403c-0.228-0.881,0.168-1.805,0.963-2.249c1.208-0.673,2.301-1.518,3.248-2.509c0.64-0.672,1.659-0.813,2.461-0.342
		l4.408,2.595l1.685-2.86l-4.408-2.595c-0.8-0.471-1.171-1.43-0.896-2.316c0.406-1.311,0.614-2.677,0.618-4.06
		c0.002-0.91,0.618-1.704,1.499-1.931l5.403-1.398l-0.832-3.214l-5.233,1.354c-0.917,0.239-1.871-0.199-2.292-1.046
		c-0.717-1.442-1.666-2.734-2.821-3.838c-0.671-0.642-0.813-1.661-0.342-2.46l2.596-4.409l-2.86-1.685l-2.596,4.408
		c-0.472,0.8-1.432,1.171-2.316,0.896c-1.314-0.408-2.68-0.616-4.059-0.619c-0.91-0.001-1.704-0.618-1.933-1.499l-1.211-4.683
		l-3.215,0.832l1.168,4.513c0.236,0.916-0.2,1.872-1.047,2.292c-1.438,0.714-2.729,1.664-3.84,2.823
		c-0.642,0.669-1.658,0.81-2.459,0.34l-4.409-2.596l-1.684,2.86l4.408,2.596c0.8,0.471,1.171,1.431,0.896,2.317
		c-0.475,1.528-0.679,3.118-0.605,4.727c0.043,0.945-0.582,1.79-1.497,2.027l-4.513,1.167l0.832,3.216l4.683-1.213
		c0.886-0.229,1.808,0.168,2.249,0.963c0.672,1.206,1.516,2.298,2.509,3.246c0.672,0.642,0.813,1.661,0.343,2.462l-2.597,4.409
		l2.861,1.685l2.596-4.409c0.472-0.8,1.429-1.17,2.316-0.896c1.524,0.473,3.129,0.676,4.726,0.604
		C89.38,52.409,89.411,52.409,89.441,52.409z"/>
	<path d="M88.722,46.522c-1.421,0-2.822-0.383-4.052-1.107c-3.798-2.236-5.068-7.146-2.833-10.944
		c1.432-2.431,4.073-3.94,6.895-3.94c1.421,0,2.821,0.382,4.05,1.106c1.841,1.083,3.148,2.819,3.684,4.886
		c0.535,2.067,0.232,4.219-0.851,6.06C94.184,45.012,91.543,46.522,88.722,46.522z M88.731,34.531c-1.411,0-2.732,0.754-3.447,1.97
		c-1.117,1.897-0.482,4.35,1.415,5.467c0.615,0.362,1.314,0.554,2.022,0.554c1.41,0,2.73-0.754,3.445-1.969
		c1.117-1.898,0.482-4.352-1.415-5.469C90.138,34.722,89.438,34.531,88.731,34.531z"/>
</g>
</svg>
