<?xml version="1.0" encoding="iso-8859-1"?>
<!-- Generator: Adobe Illustrator 16.0.3, SVG Export Plug-In . SVG Version: 6.00 Build 0)  -->
<!DOCTYPE svg PUBLIC "-//W3C//DTD SVG 1.1//EN" "http://www.w3.org/Graphics/SVG/1.1/DTD/svg11.dtd">
<svg version="1.1" id="Layer_1" xmlns="http://www.w3.org/2000/svg" xmlns:xlink="http://www.w3.org/1999/xlink" x="0px" y="0px"
	 width="128px" height="128px" viewBox="0 0 128 128" enable-background="new 0 0 128 128" xml:space="preserve">
<path d="M108.653,56.986l-2.828-2.828l3.479-3.48c0.38-0.38,0.589-0.888,0.589-1.432c0-0.543-0.208-1.051-0.587-1.429L80.085,18.594
	c-0.789-0.787-2.072-0.789-2.863,0.001l-3.478,3.479l-2.83-2.827l3.479-3.481c2.351-2.348,6.171-2.348,8.52-0.001l29.222,29.223
	c1.135,1.134,1.76,2.646,1.759,4.259c0,1.612-0.626,3.125-1.761,4.26L108.653,56.986z"/>
<path d="M34.472,112.621c-0.022-0.064-2.364-6.787-7.517-11.938c-5.161-5.16-11.566-7.221-11.631-7.24l1.203-3.815
	c0.3,0.095,7.41,2.382,13.256,8.228c5.831,5.828,8.37,13.169,8.476,13.479L34.472,112.621z"/>
<path d="M13.926,113.978l0.002-41.001l52.623-52.623c0.919-0.917,2.14-1.422,3.439-1.422c1.301,0,2.522,0.505,3.438,1.423
	l34.12,34.122c0.915,0.912,1.421,2.133,1.422,3.434c0.001,1.302-0.503,2.523-1.42,3.44l-52.624,52.625L13.926,113.978z
	 M17.928,74.634l-0.002,35.344l35.344-0.002l51.452-51.454c0.217-0.217,0.248-0.474,0.248-0.608s-0.032-0.392-0.248-0.606
	L70.599,23.182c-0.218-0.217-0.475-0.25-0.608-0.25c-0.135,0-0.394,0.033-0.612,0.251L17.928,74.634z"/>
<path d="M55.512,113.39l-2.828-2.828c4.274-4.274,4.014-11.493-0.581-16.091c-4.542-4.537-10.761-5.356-13.084-3.033
	c-0.781,0.78-2.047,0.781-2.828,0c-0.391-0.391-0.586-0.902-0.586-1.415c0-0.512,0.195-1.023,0.586-1.414
	c1.121-1.12,1.527-3.109,1.113-5.457c-0.472-2.681-1.984-5.462-4.15-7.628c-2.184-2.184-5.007-3.422-7.95-3.49
	c-2.984-0.068-5.74,1.065-7.861,3.186l-2.828-2.828c2.9-2.9,6.69-4.447,10.78-4.355c3.978,0.09,7.773,1.746,10.688,4.66
	c2.773,2.773,4.642,6.24,5.262,9.763c0.232,1.315,0.274,2.583,0.139,3.762c4.285-0.519,9.537,1.413,13.549,5.423
	C61.086,97.801,61.346,107.556,55.512,113.39z"/>
<rect x="62.12" y="28.414" transform="matrix(0.7071 0.7071 -0.7071 0.7071 63.6873 -26.7387)" width="4" height="70.188"/>
</svg>
