<?xml version="1.0" encoding="iso-8859-1"?>
<!-- Generator: Adobe Illustrator 16.0.3, SVG Export Plug-In . SVG Version: 6.00 Build 0)  -->
<!DOCTYPE svg PUBLIC "-//W3C//DTD SVG 1.1//EN" "http://www.w3.org/Graphics/SVG/1.1/DTD/svg11.dtd">
<svg version="1.1" id="Layer_1" xmlns="http://www.w3.org/2000/svg" xmlns:xlink="http://www.w3.org/1999/xlink" x="0px" y="0px"
	 width="128px" height="128px" viewBox="0 0 128 128" enable-background="new 0 0 128 128" xml:space="preserve">
<path d="M26.701,114.479c-1.104,0-2-0.896-2-2V15.615c0-1.104,0.896-2,2-2s2,0.896,2,2v96.864
	C28.701,113.584,27.806,114.479,26.701,114.479z"/>
<path fill="none" stroke="#000000" stroke-width="4" stroke-linecap="round" stroke-miterlimit="10" d="M66.82,37.243"/>
<path d="M102.555,86.342H64.82v-13c0-1.105,0.896-2,2-2s2,0.895,2,2v9h27.406L85.991,60.785l10.235-21.542H66.82
	c-1.104,0-2-0.896-2-2s0.896-2,2-2h35.734L90.419,60.786L102.555,86.342z"/>
<path d="M68.82,75.342H24.701V24.244H68.82V75.342z M28.701,71.342H64.82V28.244H28.701V71.342z"/>
</svg>
