<?xml version="1.0" encoding="iso-8859-1"?>
<!-- Generator: Adobe Illustrator 16.0.3, SVG Export Plug-In . SVG Version: 6.00 Build 0)  -->
<!DOCTYPE svg PUBLIC "-//W3C//DTD SVG 1.1//EN" "http://www.w3.org/Graphics/SVG/1.1/DTD/svg11.dtd">
<svg version="1.1" id="Layer_1" xmlns="http://www.w3.org/2000/svg" xmlns:xlink="http://www.w3.org/1999/xlink" x="0px" y="0px"
	 width="128px" height="128px" viewBox="0 0 128 128" enable-background="new 0 0 128 128" xml:space="preserve">
<path d="M20.688,114.615c-1.104,0-2-0.895-2-2V15.751c0-1.104,0.896-2,2-2s2,0.896,2,2v96.864
	C22.688,113.721,21.792,114.615,20.688,114.615z"/>
<path d="M109.275,79.479H21.807c-1.104,0-2-0.895-2-2c0-1.104,0.896-2,2-2h78.918l-19.663-23.55l19.663-23.549H21.807
	c-1.104,0-2-0.896-2-2c0-1.105,0.896-2,2-2h87.469L86.272,51.929L109.275,79.479z"/>
</svg>
