<?xml version="1.0" encoding="utf-8"?>
<!-- Generator: Adobe Illustrator 16.0.3, SVG Export Plug-In . SVG Version: 6.00 Build 0)  -->
<!DOCTYPE svg PUBLIC "-//W3C//DTD SVG 1.1//EN" "http://www.w3.org/Graphics/SVG/1.1/DTD/svg11.dtd">
<svg version="1.1" id="Layer_1" xmlns="http://www.w3.org/2000/svg" xmlns:xlink="http://www.w3.org/1999/xlink" x="0px" y="0px"
	 width="128px" height="128px" viewBox="0 0 128 128" enable-background="new 0 0 128 128" xml:space="preserve">
<g>
	<g>
		<path d="M105.74,62.001H51.051l15.011-15.193c0.776-0.786,0.769-2.053-0.018-2.829c-0.785-0.776-2.051-0.769-2.828,0.017
			L43.452,64.001l19.765,20.003c0.392,0.396,0.907,0.595,1.423,0.595c0.508,0,1.016-0.192,1.405-0.576
			c0.786-0.777,0.794-2.044,0.018-2.829L51.051,66.001h54.689c1.104,0,2-0.896,2-2C107.74,62.897,106.845,62.001,105.74,62.001z
			 M54.397,109.928H24.261V18.073h30.137c1.104,0,2-0.895,2-2c0-1.104-0.896-2-2-2H20.261v99.855h34.137c1.104,0,2-0.895,2-2
			C56.397,110.824,55.502,109.928,54.397,109.928z"/>
	</g>
</g>
</svg>
