<?xml version="1.0" encoding="iso-8859-1"?>
<!-- Generator: Adobe Illustrator 16.0.3, SVG Export Plug-In . SVG Version: 6.00 Build 0)  -->
<!DOCTYPE svg PUBLIC "-//W3C//DTD SVG 1.1//EN" "http://www.w3.org/Graphics/SVG/1.1/DTD/svg11.dtd">
<svg version="1.1" id="Layer_1" xmlns="http://www.w3.org/2000/svg" xmlns:xlink="http://www.w3.org/1999/xlink" x="0px" y="0px"
	 width="128px" height="128px" viewBox="0 0 128 128" enable-background="new 0 0 128 128" xml:space="preserve">
<path d="M101.405,114.27H25.114c-6.532,0-11.847-5.314-11.847-11.848V25.928c0-6.533,5.314-11.847,11.847-11.847h76.291
	c6.532,0,11.847,5.314,11.847,11.847v76.494C113.252,108.955,107.938,114.27,101.405,114.27z M25.114,18.081
	c-4.327,0-7.847,3.52-7.847,7.847v76.494c0,4.327,3.52,7.848,7.847,7.848h76.291c4.327,0,7.847-3.521,7.847-7.848V25.928
	c0-4.327-3.52-7.847-7.847-7.847H25.114z"/>
<g>
	<path d="M63.468,59.295c-1.104,0-2-0.896-2-2V29.903c0-1.104,0.896-2,2-2s2,0.896,2,2v27.392
		C65.468,58.399,64.572,59.295,63.468,59.295z"/>
	<path d="M63.468,87.307c-1.104,0-2-0.895-2-2V73.951c0-1.104,0.896-2,2-2s2,0.896,2,2v11.355
		C65.468,86.412,64.572,87.307,63.468,87.307z"/>
	<path d="M63.606,98.458c-3.704,0-6.717-3.015-6.717-6.72c0-3.703,3.013-6.717,6.717-6.717c3.705,0,6.72,3.014,6.72,6.717
		C70.326,95.443,67.312,98.458,63.606,98.458z M63.606,89.021c-1.498,0-2.717,1.219-2.717,2.717c0,1.5,1.219,2.72,2.717,2.72
		c1.5,0,2.72-1.22,2.72-2.72C66.326,90.24,65.106,89.021,63.606,89.021z"/>
	<path d="M68.003,66.654h-9.487c-2.46,0-4.462-2.001-4.462-4.461v-1.661c0-2.46,2.002-4.462,4.462-4.462h9.487
		c2.46,0,4.462,2.001,4.462,4.462v1.661C72.465,64.653,70.463,66.654,68.003,66.654z M58.516,60.07c-0.25,0-0.462,0.211-0.462,0.462
		v1.661c0,0.25,0.212,0.462,0.462,0.462h9.487c0.25,0,0.462-0.211,0.462-0.462v-1.661c0-0.25-0.212-0.462-0.462-0.462H58.516z"/>
</g>
<g>
	<g>
		<path d="M36.653,50.247c-1.104,0-2-0.896-2-2V29.903c0-1.104,0.896-2,2-2s2,0.896,2,2v18.344
			C38.653,49.352,37.758,50.247,36.653,50.247z"/>
		<path d="M36.653,87.307c-1.104,0-2-0.895-2-2V65.623c0-1.104,0.896-2,2-2s2,0.896,2,2v19.684
			C38.653,86.412,37.758,87.307,36.653,87.307z"/>
		<path d="M36.364,98.458c-3.704,0-6.718-3.015-6.718-6.72c0-3.703,3.014-6.717,6.718-6.717c3.705,0,6.72,3.014,6.72,6.717
			C43.084,95.443,40.069,98.458,36.364,98.458z M36.364,89.021c-1.499,0-2.718,1.219-2.718,2.717c0,1.5,1.219,2.72,2.718,2.72
			c1.5,0,2.72-1.22,2.72-2.72C39.084,90.24,37.864,89.021,36.364,89.021z"/>
		<path d="M40.977,59.026h-9.488c-2.46,0-4.461-2.001-4.461-4.461v-1.662c0-2.46,2.001-4.462,4.461-4.462h9.488
			c2.46,0,4.462,2.001,4.462,4.462v1.662C45.438,57.025,43.437,59.026,40.977,59.026z M31.488,52.441
			c-0.25,0-0.461,0.211-0.461,0.462v1.662c0,0.25,0.211,0.461,0.461,0.461h9.488c0.25,0,0.462-0.211,0.462-0.461v-1.662
			c0-0.25-0.212-0.462-0.462-0.462H31.488z"/>
	</g>
	<g>
		<path d="M90.286,41.915c-1.104,0-2-0.896-2-2V29.903c0-1.104,0.896-2,2-2s2,0.896,2,2v10.012
			C92.286,41.019,91.391,41.915,90.286,41.915z"/>
		<path d="M90.286,87.307c-1.104,0-2-0.895-2-2V56.572c0-1.104,0.896-2,2-2s2,0.896,2,2v28.734
			C92.286,86.412,91.391,87.307,90.286,87.307z"/>
		<path d="M90.286,98.458c-3.704,0-6.718-3.015-6.718-6.72c0-3.703,3.014-6.717,6.718-6.717c3.705,0,6.72,3.014,6.72,6.717
			C97.006,95.443,93.991,98.458,90.286,98.458z M90.286,89.021c-1.499,0-2.718,1.219-2.718,2.717c0,1.5,1.219,2.72,2.718,2.72
			c1.5,0,2.72-1.22,2.72-2.72C93.006,90.24,91.786,89.021,90.286,89.021z"/>
		<path d="M95.031,49.94h-9.488c-2.46,0-4.462-2.001-4.462-4.462v-1.661c0-2.46,2.002-4.462,4.462-4.462h9.488
			c2.46,0,4.462,2.001,4.462,4.462v1.661C99.493,47.938,97.491,49.94,95.031,49.94z M85.543,43.355c-0.25,0-0.462,0.211-0.462,0.462
			v1.661c0,0.25,0.212,0.462,0.462,0.462h9.488c0.25,0,0.462-0.211,0.462-0.462v-1.661c0-0.25-0.212-0.462-0.462-0.462H85.543z"/>
	</g>
</g>
</svg>
