<?xml version="1.0" encoding="utf-8"?>
<!-- Generator: Adobe Illustrator 16.0.3, SVG Export Plug-In . SVG Version: 6.00 Build 0)  -->
<!DOCTYPE svg PUBLIC "-//W3C//DTD SVG 1.1//EN" "http://www.w3.org/Graphics/SVG/1.1/DTD/svg11.dtd">
<svg version="1.1" id="Layer_1" xmlns="http://www.w3.org/2000/svg" xmlns:xlink="http://www.w3.org/1999/xlink" x="0px" y="0px"
	 width="128px" height="128px" viewBox="0 0 128 128" enable-background="new 0 0 128 128" xml:space="preserve">
<g>
	<g>
		<path d="M53.406,110.15H23.195V18.073h30.211c1.104,0,2-0.895,2-2c0-1.104-0.896-2-2-2H19.195V114.15h34.211c1.104,0,2-0.896,2-2
			S54.511,110.15,53.406,110.15z M87.872,44.064c-0.776-0.786-2.042-0.792-2.828-0.017c-0.786,0.776-0.794,2.043-0.018,2.829
			l15.055,15.236H45.253c-1.104,0-2,0.896-2,2c0,1.105,0.896,2,2,2h54.829L85.026,81.348c-0.776,0.786-0.769,2.053,0.018,2.829
			c0.39,0.385,0.897,0.577,1.405,0.577c0.516,0,1.031-0.197,1.423-0.594l19.809-20.048L87.872,44.064z"/>
	</g>
</g>
</svg>
