<?xml version="1.0" encoding="iso-8859-1"?>
<!-- Generator: Adobe Illustrator 16.0.3, SVG Export Plug-In . SVG Version: 6.00 Build 0)  -->
<!DOCTYPE svg PUBLIC "-//W3C//DTD SVG 1.1//EN" "http://www.w3.org/Graphics/SVG/1.1/DTD/svg11.dtd">
<svg version="1.1" id="Layer_1" xmlns="http://www.w3.org/2000/svg" xmlns:xlink="http://www.w3.org/1999/xlink" x="0px" y="0px"
	 width="128px" height="128px" viewBox="0 0 128 128" enable-background="new 0 0 128 128" xml:space="preserve">
<path d="M64.074,114.215c-27.627,0-50.104-22.478-50.104-50.105c0-27.627,22.477-50.103,50.104-50.103s50.104,22.476,50.104,50.103
	c0,6.734-1.314,13.27-3.906,19.425c-0.507,1.205-1.589,1.897-2.969,1.897c-1.891,0-4.259-1.305-7.536-3.11
	c-3.881-2.138-8.71-4.797-12.46-4.797c-2.094,0-5.029,0.756-6.332,7.294c-1.359,6.825,5.077,10.254,11.218,12.932
	c2.56,1.115,3.969,1.73,4.178,3.282c0.106,0.793-0.219,1.58-0.871,2.106C86.638,110.281,75.479,114.215,64.074,114.215z
	 M64.074,18.006c-25.422,0-46.104,20.682-46.104,46.103c0,25.422,20.682,46.105,46.104,46.105c9.638,0,19.086-3.053,26.878-8.643
	c-0.121-0.053-0.242-0.105-0.358-0.156c-5.078-2.215-15.645-6.822-13.543-17.379c1.732-8.689,6.533-10.513,10.256-10.513
	c4.779,0,10.107,2.935,14.39,5.294c1.819,1.002,4.021,2.215,5.149,2.533c2.212-5.477,3.332-11.273,3.332-17.242
	C110.178,38.688,89.496,18.006,64.074,18.006z"/>
<path d="M45.85,91.527c-5.716,0-10.366-4.648-10.366-10.364s4.65-10.366,10.366-10.366s10.365,4.65,10.365,10.366
	S51.565,91.527,45.85,91.527z M45.85,74.797c-3.511,0-6.366,2.855-6.366,6.366c0,3.51,2.855,6.364,6.366,6.364
	c3.51,0,6.365-2.854,6.365-6.364C52.215,77.652,49.359,74.797,45.85,74.797z"/>
<path d="M37.483,62.643c-5.716,0-10.365-4.65-10.365-10.366c0-5.715,4.649-10.365,10.365-10.365s10.366,4.65,10.366,10.365
	C47.85,57.993,43.199,62.643,37.483,62.643z M37.483,45.912c-3.51,0-6.365,2.855-6.365,6.365c0,3.51,2.855,6.366,6.365,6.366
	c3.511,0,6.366-2.856,6.366-6.366C43.85,48.767,40.994,45.912,37.483,45.912z"/>
<path d="M63.103,45.912c-5.715,0-10.364-4.65-10.364-10.366c0-5.715,4.649-10.364,10.364-10.364c5.716,0,10.366,4.649,10.366,10.364
	C73.469,41.261,68.818,45.912,63.103,45.912z M63.103,29.181c-3.509,0-6.364,2.855-6.364,6.364c0,3.51,2.855,6.366,6.364,6.366
	c3.511,0,6.366-2.856,6.366-6.366C69.469,32.036,66.613,29.181,63.103,29.181z"/>
<path d="M91.04,62.643c-5.716,0-10.365-4.65-10.365-10.366c0-5.715,4.649-10.365,10.365-10.365c5.717,0,10.367,4.65,10.367,10.365
	C101.407,57.993,96.757,62.643,91.04,62.643z M91.04,45.912c-3.51,0-6.365,2.855-6.365,6.365c0,3.51,2.855,6.366,6.365,6.366
	c3.511,0,6.367-2.856,6.367-6.366C97.407,48.767,94.551,45.912,91.04,45.912z"/>
</svg>
