<?xml version="1.0" encoding="utf-8"?>
<!-- Generator: Adobe Illustrator 16.0.3, SVG Export Plug-In . SVG Version: 6.00 Build 0)  -->
<!DOCTYPE svg PUBLIC "-//W3C//DTD SVG 1.1//EN" "http://www.w3.org/Graphics/SVG/1.1/DTD/svg11.dtd">
<svg version="1.1" id="Layer_1" xmlns="http://www.w3.org/2000/svg" xmlns:xlink="http://www.w3.org/1999/xlink" x="0px" y="0px"
	 width="128px" height="128px" viewBox="0 0 128 128" enable-background="new 0 0 128 128" xml:space="preserve">
<g>
	<g>
		<path d="M64,18.055c-9.727,0-19.029,2.749-27.108,7.964l3.086-14.547c0.229-1.081-0.46-2.142-1.541-2.371
			c-1.08-0.229-2.143,0.461-2.371,1.542l-4.69,22.104l21.17,7.898c0.23,0.086,0.467,0.127,0.699,0.127
			c0.811,0,1.573-0.498,1.874-1.302c0.386-1.034-0.14-2.187-1.175-2.573l-16.748-6.25c7.849-5.619,17.096-8.593,26.804-8.593
			c25.436,0,46.129,20.693,46.129,46.127c0,25.436-20.693,46.131-46.129,46.131S17.871,93.617,17.871,68.182c0-1.104-0.896-2-2-2
			s-2,0.896-2,2c0,27.642,22.487,50.131,50.129,50.131s50.129-22.489,50.129-50.131C114.129,40.542,91.642,18.055,64,18.055z"/>
	</g>
</g>
</svg>
