<?xml version="1.0" encoding="iso-8859-1"?>
<!-- Generator: Adobe Illustrator 16.0.3, SVG Export Plug-In . SVG Version: 6.00 Build 0)  -->
<!DOCTYPE svg PUBLIC "-//W3C//DTD SVG 1.1//EN" "http://www.w3.org/Graphics/SVG/1.1/DTD/svg11.dtd">
<svg version="1.1" id="Layer_1" xmlns="http://www.w3.org/2000/svg" xmlns:xlink="http://www.w3.org/1999/xlink" x="0px" y="0px"
	 width="128px" height="128px" viewBox="0 0 128 128" enable-background="new 0 0 128 128" xml:space="preserve">
<g>
	<path d="M86.712,109.955H59.135c-8.182,0-16.075-3.447-21.659-9.457c-0.751-0.811-0.705-2.076,0.104-2.828
		c0.811-0.752,2.073-0.705,2.827,0.105c4.899,5.275,11.551,8.18,18.728,8.18h27.577c1.104,0,2,0.896,2,2
		C88.712,109.061,87.816,109.955,86.712,109.955z"/>
	<path d="M39.136,62.464c-0.503,0-1.005-0.188-1.394-0.565c-0.793-0.771-0.811-2.036-0.041-2.828
		c1.773-1.824,3.799-3.394,6.022-4.666c0.96-0.546,2.18-0.216,2.729,0.743c0.548,0.959,0.216,2.181-0.743,2.729
		c-1.898,1.086-3.628,2.426-5.14,3.98C40.178,62.262,39.657,62.464,39.136,62.464z"/>
	<path d="M69.222,54.504c-1.104,0-2-0.896-2-2s0.896-2,2-2h4.794l8.964-0.078c1.141,0.019,2.007,0.877,2.018,1.982
		c0.01,1.104-0.878,2.008-1.982,2.018L69.222,54.504z"/>
	<path d="M104.747,68.291H92.522c-1.104,0-2-0.895-2-2c0-1.104,0.896-2,2-2h12.225c2.721,0,4.935-2.212,4.935-4.932
		c0-2.721-2.214-4.934-4.935-4.934h-21.75c-1.104,0-2-0.896-2-2s0.896-2,2-2h21.75c4.927,0,8.935,4.008,8.935,8.934
		C113.682,64.285,109.674,68.291,104.747,68.291z"/>
	<path d="M104.937,82.229H92.522c-1.104,0-2-0.895-2-2c0-1.104,0.896-2,2-2h12.414c2.721,0,4.935-2.213,4.935-4.936
		c0-2.721-2.214-4.934-4.935-4.934H92.522c-1.104,0-2-0.895-2-2c0-1.104,0.896-2,2-2h12.414c4.927,0,8.935,4.007,8.935,8.933
		C113.871,78.221,109.863,82.229,104.937,82.229z"/>
	<path d="M104.563,96.096H93.278c-1.104,0-2-0.896-2-2c0-1.105,0.896-2,2-2h11.285c2.721,0,4.934-2.215,4.934-4.936
		c0-2.719-2.213-4.932-4.934-4.932H93.278c-1.104,0-2-0.895-2-2c0-1.104,0.896-2,2-2h11.285c4.926,0,8.934,4.008,8.934,8.932
		C113.497,92.088,109.489,96.096,104.563,96.096z"/>
	<path d="M100.015,109.963H86.779c-1.104,0-2-0.895-2-2c0-1.104,0.896-2,2-2h13.235c2.72,0,4.933-2.213,4.933-4.936
		c0-2.719-2.213-4.932-4.933-4.932h-1.427c-1.104,0-2-0.896-2-2c0-1.105,0.896-2,2-2h1.427c4.926,0,8.933,4.006,8.933,8.932
		C108.947,105.955,104.94,109.963,100.015,109.963z"/>
	<path fill="none" stroke="#000000" stroke-width="4" stroke-linecap="round" stroke-miterlimit="10" d="M35.73,69.152"/>
	<path d="M44.21,58.444c-0.608,0-1.209-0.276-1.603-0.801c-0.662-0.884-0.482-2.137,0.401-2.8
		c5.197-3.896,13.58-15.43,15.941-28.868c0.443-2.524,1.845-4.725,3.946-6.195c2.098-1.468,4.638-2.033,7.154-1.583
		c2.518,0.441,4.702,1.846,6.147,3.952c1.43,2.086,1.974,4.623,1.53,7.144c-1.628,9.256-3.494,18.752-6.793,24.242
		c-0.568,0.946-1.799,1.254-2.744,0.684c-0.946-0.568-1.253-1.797-0.684-2.744c3.191-5.313,5.051-15.881,6.281-22.875
		c0.261-1.483-0.055-2.971-0.89-4.188c-0.832-1.213-2.09-2.021-3.544-2.276c-1.467-0.263-2.945,0.067-4.165,0.922
		c-1.226,0.857-2.042,2.139-2.301,3.609c-2.693,15.331-12.152,27.382-17.482,31.378C45.048,58.314,44.627,58.444,44.21,58.444z"/>
</g>
<path d="M40.947,109.963H14.014V50.504h26.934V109.963z M18.014,105.963h18.934V54.504H18.014V105.963z"/>
<circle cx="27.979" cy="97" r="3.531"/>
</svg>
