<?xml version="1.0" encoding="iso-8859-1"?>
<!-- Generator: Adobe Illustrator 16.0.3, SVG Export Plug-In . SVG Version: 6.00 Build 0)  -->
<!DOCTYPE svg PUBLIC "-//W3C//DTD SVG 1.1//EN" "http://www.w3.org/Graphics/SVG/1.1/DTD/svg11.dtd">
<svg version="1.1" id="Layer_1" xmlns="http://www.w3.org/2000/svg" xmlns:xlink="http://www.w3.org/1999/xlink" x="0px" y="0px"
	 width="128px" height="128px" viewBox="0 0 128 128" enable-background="new 0 0 128 128" xml:space="preserve">
<g>
	<path d="M37.389,113.666c-3.137,0-6.188-0.609-9.071-1.813c-0.616-0.256-1.063-0.803-1.192-1.457
		c-0.13-0.654,0.076-1.33,0.548-1.803l9.16-9.16c2.414-2.414,2.414-6.342,0-8.756c-1.17-1.169-2.725-1.813-4.379-1.813
		c-1.653,0-3.209,0.643-4.378,1.813l-9.16,9.16c-0.472,0.473-1.146,0.681-1.802,0.549c-0.654-0.13-1.201-0.576-1.458-1.193
		c-3.688-8.845-1.695-18.938,5.078-25.711c4.444-4.444,10.355-6.893,16.644-6.893c2.346,0,4.655,0.344,6.882,1.023l23.331-23.332
		c-2.518-8.266-0.282-17.373,5.868-23.523c4.444-4.444,10.354-6.892,16.641-6.892c3.136,0,6.187,0.609,9.069,1.811
		c0.616,0.257,1.063,0.804,1.192,1.458c0.13,0.655-0.076,1.331-0.548,1.802l-9.159,9.16c-2.413,2.414-2.412,6.342,0.002,8.756
		c1.169,1.17,2.724,1.814,4.377,1.814c1.654,0,3.208-0.644,4.377-1.813l9.16-9.161c0.472-0.472,1.148-0.675,1.802-0.548
		c0.654,0.129,1.201,0.576,1.458,1.192c3.688,8.844,1.695,18.937-5.078,25.712c-4.444,4.444-10.354,6.891-16.642,6.891
		c-2.347,0-4.656-0.344-6.883-1.023L59.896,83.25c2.516,8.268,0.281,17.375-5.867,23.523
		C49.585,111.219,43.675,113.666,37.389,113.666z M32.799,109.125c1.494,0.359,3.029,0.541,4.59,0.541
		c5.218,0,10.123-2.031,13.813-5.721c5.357-5.357,7.135-13.423,4.528-20.548c-0.268-0.731-0.087-1.551,0.464-2.101l25.081-25.082
		c0.551-0.551,1.369-0.731,2.102-0.464c2.159,0.79,4.425,1.191,6.734,1.191c5.219,0,10.125-2.031,13.813-5.72
		c4.883-4.885,6.773-11.847,5.179-18.404l-6.864,6.865c-1.924,1.925-4.482,2.985-7.205,2.985s-5.282-1.061-7.206-2.986
		c-3.973-3.973-3.974-10.438-0.001-14.412l6.861-6.862c-1.494-0.36-3.028-0.541-4.588-0.541c-5.218,0-10.123,2.032-13.813,5.721
		c-5.359,5.359-7.137,13.423-4.529,20.546c0.268,0.731,0.087,1.551-0.464,2.102l-25.08,25.082c-0.551,0.551-1.369,0.732-2.102,0.465
		c-2.159-0.79-4.425-1.191-6.734-1.191c-5.22,0-10.127,2.032-13.815,5.721c-4.884,4.885-6.773,11.846-5.18,18.404l6.865-6.866
		c1.925-1.925,4.484-2.983,7.206-2.983c2.723,0,5.282,1.059,7.207,2.984c3.974,3.974,3.974,10.439,0,14.412L32.799,109.125z"/>
</g>
</svg>
