<?xml version="1.0" encoding="iso-8859-1"?>
<!-- Generator: Adobe Illustrator 16.0.3, SVG Export Plug-In . SVG Version: 6.00 Build 0)  -->
<!DOCTYPE svg PUBLIC "-//W3C//DTD SVG 1.1//EN" "http://www.w3.org/Graphics/SVG/1.1/DTD/svg11.dtd">
<svg version="1.1" id="Layer_1" xmlns="http://www.w3.org/2000/svg" xmlns:xlink="http://www.w3.org/1999/xlink" x="0px" y="0px"
	 width="128px" height="128px" viewBox="0 0 128 128" enable-background="new 0 0 128 128" xml:space="preserve">
<path d="M74.338,89.613c-10.098,0-19.591-3.932-26.731-11.07c-7.141-7.141-11.073-16.634-11.073-26.732
	c-0.001-10.098,3.932-19.591,11.073-26.731c7.14-7.14,16.634-11.073,26.731-11.073s19.592,3.933,26.732,11.073
	c14.739,14.739,14.739,38.722-0.001,53.463C93.929,85.682,84.436,89.613,74.338,89.613z M74.338,18.006
	c-9.029,0-17.519,3.516-23.903,9.901c-6.386,6.385-9.901,14.874-9.901,23.903s3.517,17.519,9.901,23.904
	c6.385,6.383,14.874,9.898,23.903,9.898s17.519-3.516,23.903-9.9c13.18-13.18,13.181-34.625,0.001-47.806
	C91.856,21.522,83.367,18.006,74.338,18.006z"/>
<path d="M14.01,114.006c-0.512,0-1.023-0.194-1.414-0.586c-0.781-0.78-0.781-2.047,0-2.828L47.34,75.848
	c0.781-0.781,2.047-0.781,2.828,0s0.781,2.048,0,2.828L15.424,113.42C15.033,113.812,14.521,114.006,14.01,114.006z"/>
<g>
	<g>
		<path d="M74.337,69.526c-1.104,0-2-0.896-2-2V36.093c0-1.104,0.896-2,2-2s2,0.896,2,2v31.434
			C76.337,68.631,75.441,69.526,74.337,69.526z"/>
	</g>
	<g>
		<path d="M90.054,53.81H58.621c-1.104,0-2-0.896-2-2s0.896-2,2-2h31.433c1.104,0,2,0.896,2,2S91.158,53.81,90.054,53.81z"/>
	</g>
</g>
</svg>
