<?xml version="1.0" encoding="iso-8859-1"?>
<!-- Generator: Adobe Illustrator 16.0.3, SVG Export Plug-In . SVG Version: 6.00 Build 0)  -->
<!DOCTYPE svg PUBLIC "-//W3C//DTD SVG 1.1//EN" "http://www.w3.org/Graphics/SVG/1.1/DTD/svg11.dtd">
<svg version="1.1" id="Layer_1" xmlns="http://www.w3.org/2000/svg" xmlns:xlink="http://www.w3.org/1999/xlink" x="0px" y="0px"
	 width="128px" height="128px" viewBox="0 0 128 128" enable-background="new 0 0 128 128" xml:space="preserve">
<path d="M74.264,89.619c-10.098,0-19.591-3.932-26.731-11.071c-7.141-7.141-11.073-16.634-11.073-26.731
	c-0.001-10.098,3.932-19.591,11.073-26.73c7.14-7.141,16.634-11.073,26.731-11.073s19.592,3.932,26.732,11.073
	c14.739,14.738,14.738,38.721-0.001,53.463C93.854,85.688,84.361,89.619,74.264,89.619z M74.264,18.013
	c-9.029,0-17.519,3.516-23.903,9.901c-6.386,6.384-9.901,14.874-9.901,23.903c0,9.029,3.517,17.518,9.901,23.904
	c6.385,6.383,14.874,9.898,23.903,9.898s17.519-3.516,23.903-9.9c13.18-13.18,13.181-34.626,0.001-47.805
	C91.782,21.529,83.293,18.013,74.264,18.013z"/>
<path d="M13.936,114.013c-0.512,0-1.023-0.196-1.414-0.586c-0.781-0.78-0.781-2.048,0-2.827l34.744-34.746
	c0.781-0.781,2.047-0.781,2.828,0s0.781,2.047,0,2.828L15.35,113.427C14.959,113.816,14.447,114.013,13.936,114.013z"/>
<g>
	<g>
		<path d="M89.979,53.816H58.547c-1.104,0-2-0.896-2-2c0-1.104,0.896-2,2-2h31.433c1.104,0,2,0.896,2,2
			C91.979,52.92,91.084,53.816,89.979,53.816z"/>
	</g>
</g>
</svg>
